<svg width="210" height="43" viewBox="0 0 210 43" fill="none" xmlns="http://www.w3.org/2000/svg">
<path d="M40.3799 34V15.946H45.5819L45.7519 19.21L45.0039 19.278C45.2532 18.6887 45.5932 18.1673 46.0239 17.714C46.4546 17.2607 46.9306 16.8867 47.4519 16.592C47.9959 16.2747 48.5626 16.0367 49.1519 15.878C49.7412 15.6967 50.3306 15.606 50.9199 15.606C51.8266 15.606 52.6312 15.742 53.3339 16.014C54.0592 16.286 54.6826 16.728 55.2039 17.34C55.7479 17.952 56.1786 18.768 56.4959 19.788L55.6799 19.652L55.9179 19.176C56.2352 18.632 56.6206 18.1447 57.0739 17.714C57.5499 17.2607 58.0712 16.8753 58.6379 16.558C59.2046 16.2407 59.7826 16.0027 60.3719 15.844C60.9839 15.6853 61.5732 15.606 62.1399 15.606C63.5679 15.606 64.7579 15.8893 65.7099 16.456C66.6619 17.0227 67.3759 17.8613 67.8519 18.972C68.3279 20.06 68.5659 21.4087 68.5659 23.018V34H63.0919V23.426C63.0919 22.3607 62.8652 21.5673 62.4119 21.046C61.9812 20.502 61.3239 20.23 60.4399 20.23C59.9639 20.23 59.5219 20.3093 59.1139 20.468C58.7286 20.604 58.3886 20.8193 58.0939 21.114C57.8219 21.386 57.6066 21.7033 57.4479 22.066C57.2892 22.4287 57.2099 22.8367 57.2099 23.29V34H51.7359V23.392C51.7359 22.372 51.4979 21.59 51.0219 21.046C50.5686 20.502 49.9226 20.23 49.0839 20.23C48.6306 20.23 48.1999 20.3093 47.7919 20.468C47.4066 20.604 47.0666 20.8193 46.7719 21.114C46.4999 21.386 46.2846 21.7033 46.1259 22.066C45.9672 22.4287 45.8879 22.8367 45.8879 23.29V34H40.3799ZM75.265 41.82L79.379 32.164L79.447 35.02L70.709 15.946H76.897L80.705 25.058C80.909 25.4887 81.1016 25.976 81.283 26.52C81.4643 27.064 81.6003 27.574 81.691 28.05L80.909 28.492C81.045 28.152 81.1923 27.7213 81.351 27.2C81.5323 26.6787 81.725 26.1233 81.929 25.534L85.261 15.946H91.483L83.833 34L80.739 41.82H75.265ZM95.2262 34V15.062C95.2262 13.8833 95.4755 12.8293 95.9742 11.9C96.4955 10.948 97.2208 10.1887 98.1502 9.62197C99.0795 9.0553 100.156 8.77197 101.38 8.77197C102.219 8.77197 103.001 8.90797 103.726 9.17997C104.452 9.4293 105.098 9.78064 105.664 10.234L104.1 14.212C103.806 14.0533 103.522 13.9287 103.25 13.838C102.978 13.7473 102.729 13.702 102.502 13.702C102.094 13.702 101.754 13.77 101.482 13.906C101.21 14.042 101.006 14.246 100.87 14.518C100.757 14.79 100.7 15.13 100.7 15.538V34H97.9462C97.3568 34 96.8242 34 96.3482 34C95.8948 34 95.5208 34 95.2262 34ZM92.5742 21.012V16.456H104.406V21.012H92.5742ZM113.638 34.34C112.324 34.34 111.19 34.0567 110.238 33.49C109.286 32.9007 108.55 32.0733 108.028 31.008C107.53 29.92 107.28 28.6167 107.28 27.098V15.946H112.754V26.282C112.754 27.3927 113.015 28.2653 113.536 28.9C114.08 29.512 114.828 29.818 115.78 29.818C116.256 29.818 116.687 29.75 117.072 29.614C117.458 29.4553 117.786 29.24 118.058 28.968C118.353 28.6733 118.58 28.3333 118.738 27.948C118.897 27.5627 118.976 27.1433 118.976 26.69V15.946H124.45V34H119.316L119.112 30.294L120.098 29.886C119.849 30.7247 119.396 31.484 118.738 32.164C118.104 32.844 117.344 33.3767 116.46 33.762C115.576 34.1473 114.636 34.34 113.638 34.34ZM129.332 34V15.946H134.534L134.738 19.618L133.616 20.026C133.865 19.21 134.307 18.4733 134.942 17.816C135.599 17.136 136.381 16.592 137.288 16.184C138.195 15.776 139.147 15.572 140.144 15.572C141.504 15.572 142.649 15.8553 143.578 16.422C144.507 16.966 145.199 17.7933 145.652 18.904C146.128 19.992 146.366 21.3407 146.366 22.95V34H140.892V23.358C140.892 22.6327 140.79 22.032 140.586 21.556C140.382 21.08 140.076 20.7287 139.668 20.502C139.26 20.2753 138.75 20.1733 138.138 20.196C137.662 20.196 137.22 20.2753 136.812 20.434C136.404 20.57 136.041 20.7853 135.724 21.08C135.429 21.352 135.203 21.6693 135.044 22.032C134.885 22.3947 134.806 22.8027 134.806 23.256V34H132.052C131.463 34 130.93 34 130.454 34C130.001 34 129.627 34 129.332 34ZM157.815 34.34C156.274 34.34 154.88 33.9433 153.633 33.15C152.409 32.3567 151.446 31.2573 150.743 29.852C150.041 28.424 149.689 26.8033 149.689 24.99C149.689 23.1767 150.041 21.5673 150.743 20.162C151.446 18.734 152.409 17.612 153.633 16.796C154.88 15.98 156.285 15.572 157.849 15.572C158.665 15.572 159.447 15.6967 160.195 15.946C160.966 16.1953 161.646 16.5353 162.235 16.966C162.847 17.3967 163.346 17.884 163.731 18.428C164.117 18.972 164.355 19.55 164.445 20.162L163.119 20.468V8.83997H168.593V34H163.493L163.187 29.92L164.275 30.124C164.23 30.668 164.026 31.2007 163.663 31.722C163.301 32.2207 162.813 32.674 162.201 33.082C161.612 33.4673 160.943 33.7733 160.195 34C159.447 34.2267 158.654 34.34 157.815 34.34ZM159.175 29.818C160.014 29.818 160.728 29.6253 161.317 29.24C161.929 28.832 162.405 28.2653 162.745 27.54C163.085 26.8147 163.255 25.9647 163.255 24.99C163.255 23.9927 163.085 23.1313 162.745 22.406C162.405 21.6807 161.929 21.1253 161.317 20.74C160.728 20.332 160.014 20.128 159.175 20.128C158.359 20.128 157.645 20.332 157.033 20.74C156.444 21.1253 155.979 21.6807 155.639 22.406C155.299 23.1313 155.129 23.9927 155.129 24.99C155.129 25.9647 155.299 26.8147 155.639 27.54C155.979 28.2653 156.444 28.832 157.033 29.24C157.645 29.6253 158.359 29.818 159.175 29.818ZM179.879 34.34C178.564 34.34 177.431 34.0567 176.479 33.49C175.527 32.9007 174.79 32.0733 174.269 31.008C173.77 29.92 173.521 28.6167 173.521 27.098V15.946H178.995V26.282C178.995 27.3927 179.255 28.2653 179.777 28.9C180.321 29.512 181.069 29.818 182.021 29.818C182.497 29.818 182.927 29.75 183.313 29.614C183.698 29.4553 184.027 29.24 184.299 28.968C184.593 28.6733 184.82 28.3333 184.979 27.948C185.137 27.5627 185.217 27.1433 185.217 26.69V15.946H190.691V34H185.557L185.353 30.294L186.339 29.886C186.089 30.7247 185.636 31.484 184.979 32.164C184.344 32.844 183.585 33.3767 182.701 33.762C181.817 34.1473 180.876 34.34 179.879 34.34ZM201.658 34.34C199.936 34.34 198.394 34.068 197.034 33.524C195.674 32.9573 194.586 32.1867 193.77 31.212L197.102 28.356C197.805 29.0587 198.598 29.58 199.482 29.92C200.366 30.2373 201.205 30.396 201.998 30.396C202.293 30.396 202.554 30.362 202.78 30.294C203.007 30.226 203.2 30.1353 203.358 30.022C203.54 29.886 203.676 29.7387 203.766 29.58C203.857 29.3987 203.902 29.1947 203.902 28.968C203.902 28.5147 203.71 28.1747 203.324 27.948C203.143 27.8347 202.814 27.6987 202.338 27.54C201.862 27.3587 201.25 27.1773 200.502 26.996C199.437 26.724 198.508 26.3953 197.714 26.01C196.944 25.6247 196.309 25.1827 195.81 24.684C195.357 24.2307 195.006 23.7093 194.756 23.12C194.53 22.5307 194.416 21.8733 194.416 21.148C194.416 20.0373 194.745 19.0627 195.402 18.224C196.082 17.3853 196.966 16.7393 198.054 16.286C199.142 15.81 200.321 15.572 201.59 15.572C202.588 15.572 203.528 15.6853 204.412 15.912C205.319 16.1387 206.158 16.456 206.928 16.864C207.722 17.272 208.424 17.7593 209.036 18.326L206.146 21.556C205.761 21.1707 205.308 20.8307 204.786 20.536C204.265 20.2187 203.744 19.9693 203.222 19.788C202.701 19.584 202.214 19.482 201.76 19.482C201.42 19.482 201.114 19.516 200.842 19.584C200.593 19.6293 200.378 19.72 200.196 19.856C200.038 19.9693 199.913 20.1167 199.822 20.298C199.732 20.4567 199.686 20.638 199.686 20.842C199.686 21.0913 199.743 21.318 199.856 21.522C199.992 21.7033 200.174 21.8733 200.4 22.032C200.604 22.1453 200.956 22.2927 201.454 22.474C201.976 22.6553 202.656 22.8593 203.494 23.086C204.56 23.3807 205.466 23.7207 206.214 24.106C206.985 24.4687 207.597 24.8993 208.05 25.398C208.436 25.7833 208.708 26.2367 208.866 26.758C209.048 27.2567 209.138 27.8007 209.138 28.39C209.138 29.546 208.81 30.5773 208.152 31.484C207.518 32.368 206.634 33.0707 205.5 33.592C204.39 34.0907 203.109 34.34 201.658 34.34Z" fill="white"/>
<path d="M16 38C24.8366 38 32 30.8366 32 22C32 13.1634 24.8366 6 16 6C7.16344 6 0 13.1634 0 22C0 30.8366 7.16344 38 16 38Z" fill="#FF3D00"/>
<path d="M6.9067 22.0718C7.86044 22.0718 8.63322 21.6865 8.63322 21.2109C8.63322 20.7353 7.86044 20.35 6.9067 20.35C5.95296 20.35 5.18018 20.7353 5.18018 21.2109C5.18018 21.6865 5.95296 22.0718 6.9067 22.0718Z" fill="#FC9659"/>
<path d="M24.1745 22.0718C25.1283 22.0718 25.901 21.6865 25.901 21.2109C25.901 20.7353 25.1283 20.35 24.1745 20.35C23.2208 20.35 22.448 20.7353 22.448 21.2109C22.448 21.6865 23.2208 22.0718 24.1745 22.0718Z" fill="#FC9659"/>
<path d="M18.3557 17.7967L18.381 17.7194C19.0668 15.6236 22.0533 15.6775 22.6572 17.7967V17.7967" stroke="black"/>
<path d="M9.03369 17.464L9.05897 17.3868C9.74476 15.2909 12.7312 15.3449 13.3352 17.4641V17.4641" stroke="black"/>
<path d="M19.2052 21.4362V21.4362C17.8312 23.4862 14.919 23.7523 13.1976 21.9852L13.0337 21.817" stroke="black"/>
</svg>
