<?xml version="1.0" encoding="utf-8"?>
<!-- Generator: Adobe Illustrator 24.3.0, SVG Export Plug-In . SVG Version: 6.00 Build 0)  -->
<svg version="1.1" id="Ebene_1" xmlns="http://www.w3.org/2000/svg" xmlns:xlink="http://www.w3.org/1999/xlink" x="0px" y="0px"
	 viewBox="0 0 1218 445.9" style="enable-background:new 0 0 1218 445.9;" xml:space="preserve">
<style type="text/css">
	.st0{fill:#35DD88;}
	.st1{enable-background:new    ;}
</style>
<g>
	<polygon class="st0" points="75.6,279.4 91.5,138.1 139.9,138.1 194.4,251.9 203.3,111.9 242.5,113.9 230.2,323.2 184.7,323.2 
		125.3,200.1 116.4,282.4 	"/>
	<g class="st1">
		<path d="M359.4,262.8l-30-71h-0.3l-12.5,71h-15.9l16.1-91.4h20.7l29.4,68.8h0.3l12.1-68.8h15.9l-16.1,91.4H359.4z"/>
		<path d="M402.5,262.8l16.1-91.4h57.6l-2.5,13.9h-42.1l-4.1,23.6h40.2l-2.5,13.4h-40l-4.6,26.2h45.7l-2.5,14.2H402.5z"/>
		<path d="M533.9,169c6.5,0,12.5,0.9,17.8,2.8c5.3,1.9,9.8,4.5,13.6,7.9c3.8,3.4,6.7,7.6,8.8,12.5c2.1,4.9,3.1,10.4,3.1,16.5
			c0,7.7-1.3,15.1-3.9,21.9c-2.6,6.9-6.3,12.9-10.9,17.9c-4.6,5.1-10.2,9.1-16.5,12.1c-6.4,3-13.3,4.5-20.9,4.5
			c-6.7,0-12.8-0.9-18.2-2.7c-5.4-1.8-10.1-4.4-13.9-7.9c-3.8-3.4-6.8-7.6-8.8-12.5c-2.1-4.9-3.1-10.4-3.1-16.5
			c0-7.7,1.4-15.1,4.1-21.9c2.7-6.9,6.4-12.9,11.2-17.9c4.7-5.1,10.3-9.1,16.8-12.1S526.3,169,533.9,169z M524.9,251.1
			c5.8,0,10.9-1.2,15.3-3.5c4.4-2.3,8.2-5.4,11.2-9.3c3.1-3.9,5.4-8.3,7-13.2c1.6-4.9,2.4-9.9,2.4-15.1c0-3.7-0.6-7.2-1.8-10.6
			c-1.2-3.4-3-6.3-5.3-8.7c-2.3-2.5-5.2-4.4-8.7-5.9c-3.4-1.5-7.4-2.2-11.9-2.2c-5.5,0-10.5,1.2-14.9,3.5c-4.4,2.3-8.2,5.4-11.3,9.3
			c-3.1,3.9-5.5,8.3-7.2,13.2s-2.5,9.9-2.5,15.1c0,3.8,0.6,7.3,1.8,10.7c1.2,3.3,3,6.2,5.3,8.7c2.3,2.5,5.2,4.4,8.7,5.9
			C516.4,250.4,520.4,251.1,524.9,251.1z"/>
	</g>
	<g class="st1">
		<path d="M620.2,265.3c-3.7,0-7.3-0.3-10.9-1c-3.6-0.6-7-1.6-10.3-2.8c-3.3-1.2-6.4-2.7-9.4-4.4c-2.9-1.7-5.6-3.5-7.9-5.6
			l18.7-20.3c2.2,2.3,5,4.4,8.6,6.2c3.6,1.8,7.3,2.7,11,2.7c1.7,0,3.3-0.3,4.7-0.9c1.4-0.6,2.1-1.7,2.1-3.4c0-0.9-0.2-1.6-0.7-2.2
			c-0.5-0.6-1.3-1.2-2.5-1.9s-2.9-1.4-5-2.1c-2.1-0.8-4.8-1.7-7.9-2.7c-3.1-1-6.1-2.3-8.9-3.7c-2.8-1.4-5.4-3.2-7.6-5.2
			c-2.2-2.1-3.9-4.5-5.2-7.4s-1.9-6.4-1.9-10.4c0-5.7,1.2-10.5,3.5-14.5c2.3-4,5.3-7.2,9-9.8c3.7-2.5,7.8-4.4,12.3-5.5
			c4.6-1.1,9.1-1.7,13.6-1.7c6,0,12.2,1.2,18.4,3.5c6.2,2.3,11.7,5.7,16.5,10.1l-19.1,19.5c-2.1-2.6-4.6-4.5-7.6-5.9
			c-3-1.3-5.7-2-8.1-2c-2.2,0-4,0.3-5.4,1c-1.4,0.6-2.1,1.7-2.1,3.2c0,1.4,0.7,2.4,2.1,3.1c1.4,0.7,3.7,1.5,6.9,2.6
			c3.3,1,6.7,2.2,10.3,3.6c3.6,1.4,7,3.2,10,5.4c3.1,2.2,5.6,4.9,7.6,8.1c2,3.2,3,7.1,3,11.9c0,5.5-1.1,10.3-3.3,14.4
			c-2.2,4.1-5.1,7.5-8.7,10.2c-3.6,2.7-7.6,4.7-12.1,6.1C629.4,264.7,624.9,265.3,620.2,265.3z"/>
	</g>
	<g class="st1">
		<path d="M713.9,262.8h-30.7v-65.5h-22.5v-26h75.7v26h-22.5V262.8z"/>
		<path d="M763.5,171.3h32.7l35.6,91.4h-33.4l-4.8-13.4h-29l-4.5,13.4h-32.5L763.5,171.3z M779.4,203.2l-7.5,22.6h14.8L779.4,203.2z
			"/>
		<path d="M838.3,171.3h39.4c4.5,0,8.9,0.5,13.4,1.4c4.4,0.9,8.4,2.5,11.9,4.8c3.5,2.3,6.3,5.3,8.5,9.2c2.2,3.8,3.2,8.6,3.2,14.4
			c0,5.6-1.4,10.5-4.1,14.8c-2.7,4.3-6.7,7.6-11.8,9.9l23.2,37.1h-35.3L869,230.1h-0.9v32.7h-29.8V171.3z M867.8,210h6
			c1,0,2.2-0.1,3.4-0.3c1.2-0.2,2.4-0.5,3.5-1.1c1.1-0.6,2-1.3,2.7-2.3c0.7-1,1.1-2.3,1.1-3.9c0-1.6-0.3-2.9-0.9-3.9
			c-0.6-0.9-1.4-1.7-2.3-2.1c-0.9-0.5-2-0.8-3.1-0.9c-1.1-0.1-2.1-0.2-3.1-0.2h-7.3V210z"/>
		<path d="M974.5,262.8h-30.7v-65.5h-22.5v-26h75.7v26h-22.5V262.8z"/>
		<path d="M1006.4,171.3h62.9v25.6h-34v7.9h31.9v23.9h-31.9v8.5h36.2v25.6h-65.1V171.3z"/>
		<path d="M1084.2,171.3h39.4c4.5,0,8.9,0.5,13.4,1.4c4.4,0.9,8.4,2.5,11.9,4.8c3.5,2.3,6.3,5.3,8.5,9.2c2.2,3.8,3.2,8.6,3.2,14.4
			c0,5.6-1.4,10.5-4.1,14.8c-2.7,4.3-6.7,7.6-11.8,9.9l23.2,37.1h-35.3l-17.5-32.7h-0.9v32.7h-29.8V171.3z M1113.8,210h6
			c1,0,2.2-0.1,3.4-0.3c1.2-0.2,2.4-0.5,3.5-1.1c1.1-0.6,2-1.3,2.7-2.3c0.7-1,1.1-2.3,1.1-3.9c0-1.6-0.3-2.9-0.9-3.9
			c-0.6-0.9-1.4-1.7-2.3-2.1c-0.9-0.5-2-0.8-3.1-0.9c-1.1-0.1-2.1-0.2-3.1-0.2h-7.3V210z"/>
	</g>
</g>
</svg>
